<?xml version="1.0" encoding="UTF-8"?>
<svg id="_레이어_1" data-name="레이어 1" xmlns="http://www.w3.org/2000/svg" viewBox="0 0 500 500">
  <defs>
    <style>
      .cls-1 {
        fill: none;
        stroke: #000;
        stroke-linecap: round;
        stroke-linejoin: round;
        stroke-width: 25px;
      }

      .cls-2 {
        fill: #fff;
      }
    </style>
  </defs>
  <g>
    <path class="cls-2" d="M224.08,345.81c-29.98,0-58.16-11.67-79.36-32.87-43.76-43.76-43.76-114.96,0-158.72,21.2-21.2,49.38-32.87,79.36-32.87s58.16,11.67,79.36,32.87c43.76,43.76,43.76,114.96,0,158.72-21.2,21.2-49.38,32.87-79.36,32.87Z"/>
    <path d="M224.08,133.85c26.64,0,51.68,10.37,70.52,29.21,18.84,18.84,29.21,43.88,29.21,70.52s-10.37,51.68-29.21,70.52c-18.84,18.84-43.88,29.21-70.52,29.21s-51.68-10.37-70.52-29.21c-18.84-18.84-29.21-43.88-29.21-70.52s10.37-51.68,29.21-70.52c18.84-18.84,43.88-29.21,70.52-29.21M224.08,108.85c-31.92,0-63.84,12.18-88.2,36.53-48.71,48.71-48.71,127.68,0,176.39,24.35,24.35,56.28,36.53,88.2,36.53s63.84-12.18,88.2-36.53c48.71-48.71,48.71-127.68,0-176.39-24.35-24.35-56.28-36.53-88.2-36.53h0Z"/>
  </g>
  <line class="cls-1" x1="305.49" y1="314.99" x2="381.64" y2="391.15"/>
</svg>