<svg width="28" height="28" viewBox="0 0 28 28" fill="none" xmlns="http://www.w3.org/2000/svg">
    <g clip-path="url(#vgdazudnja)" fill="#fff">
        <path d="M6.5 11.5a1 1 0 1 0-.001 1.999A1 1 0 0 0 6.5 11.5zM15.5 11.5a1 1 0 1 0 0 2 1 1 0 0 0 0-2z"/>
        <path d="M24.254 2H3.746A3.748 3.748 0 0 0 0 5.75v12.185a3.748 3.748 0 0 0 3.746 3.75h7.243l2.464 5.812s.17.503.58.503c.411 0 .58-.503.58-.503l2.463-5.811h7.178A3.748 3.748 0 0 0 28 17.936V5.75A3.748 3.748 0 0 0 24.254 2zM8.795 12.771C8.784 15 6.483 15.063 6.483 15.063c-.89 0-1.392-.59-1.392-.59v.402H3.416V7.956s-.008-.002 0-.004v.004c.105.016 1.675-.004 1.675-.004v2.645c.393-.673 1.533-.661 1.533-.661 2.48.232 2.17 2.835 2.17 2.835h.001zm2.951-2.621v4.736h-1.64v-4.689c0-.637-.79-.815-.79-.815V7.728c2.618.107 2.43 2.422 2.43 2.422zm3.887 4.916c-1.52 0-2.75-1.134-2.75-2.532 0-1.398 1.23-2.533 2.75-2.533 1.519 0 2.749 1.135 2.749 2.533s-1.23 2.532-2.75 2.532zm8.983 0s.024 2.406-2.419 2.406h-.744v-1.558h.45s1.026.095 1.014-1.49c0 0-.2.642-1.64.642 0 0-2.04-.146-2.04-2.14v-.757s.047-2.067 2.288-2.231c0 0 .884-.095 1.428.638v-.507h1.663v5-.003z"/>
        <path d="M21.5 11.5a1 1 0 1 0 .001 2.001A1 1 0 0 0 21.5 11.5z"/>
    </g>
    <defs>
        <clipPath id="vgdazudnja">
            <path fill="#fff" d="M0 0h28v28H0z"/>
        </clipPath>
    </defs>
</svg>
