<svg width="32" height="32" viewBox="0 0 32 32" fill="none" xmlns="http://www.w3.org/2000/svg">
    <g clip-path="url(#i1w7pyjg6a)">
        <path d="M16.5 2C8.492 2 2 7.481 2 14.244c0 4.994 2.29 7.376 5.428 9.551l.016.006v5.862c0 .277.346.434.588.271l5.5-3.728.119.047c.923.154 1.874.238 2.849.238 8.008 0 14.5-5.48 14.5-12.241C31 7.49 24.508 2 16.5 2zm-4.86 15.346c1.419 0 2.636-.776 3.002-1.976h2.103c-.515 2.309-2.484 3.823-5.106 3.823-3.048 0-5.462-2.074-5.462-4.963 0-2.889 2.417-4.963 5.462-4.963 2.65 0 4.631 1.542 5.122 3.894h-2.098c-.319-1.277-1.576-2.074-3.024-2.074-2.049 0-3.41 1.335-3.41 3.143 0 1.808 1.549 3.116 3.41 3.116zM25.488 19h-1.926v-3.966c0-.913-.583-1.406-1.478-1.406-1 0-1.644.56-1.644 1.691V19h-1.926V9.298h1.926v3.65c.463-.64 1.208-.955 2.226-.955.822 0 1.494.247 2.015.75.537.505.807 1.188.807 2.072V19z" fill="#fff"/>
    </g>
    <defs>
        <clipPath id="i1w7pyjg6a">
            <path fill="#fff" d="M0 0h32v32H0z"/>
        </clipPath>
    </defs>
</svg>
